<svg xmlns="http://www.w3.org/2000/svg" xmlns:xlink="http://www.w3.org/1999/xlink" width="500" zoomAndPan="magnify" viewBox="0 0 375 374.999991" height="500" preserveAspectRatio="xMidYMid meet" version="1.0"><defs><g/><clipPath id="id1"><path d="M 299.230469 101.03125 L 344.980469 101.03125 L 344.980469 144 L 299.230469 144 Z M 299.230469 101.03125 " clip-rule="nonzero"/></clipPath><clipPath id="id2"><path d="M 247.964844 145 L 295.964844 145 L 295.964844 187.320312 L 247.964844 187.320312 Z M 247.964844 145 " clip-rule="nonzero"/></clipPath></defs><rect x="-37.5" width="450" fill="#ffffff" y="-37.499999" height="449.999989" fill-opacity="1"/><rect x="-37.5" width="450" fill="#ffffff" y="-37.499999" height="449.999989" fill-opacity="1"/><rect x="-37.5" width="450" fill="#ffffff" y="-37.499999" height="449.999989" fill-opacity="1"/><rect x="-37.5" width="450" fill="#ffffff" y="-37.499999" height="449.999989" fill-opacity="1"/><g fill="#000000" fill-opacity="1"><g transform="translate(25.240387, 265.139744)"><g><path d="M 35.226562 -177.929688 L 31.4375 -177.824219 C 27.902344 -177.726562 24.890625 -176.882812 22.148438 -175.542969 C 19.152344 -174.195312 16.675781 -172.359375 14.710938 -170.28125 C 12.746094 -168.203125 11.050781 -165.628906 9.871094 -162.5625 C 8.691406 -159.496094 8.273438 -156.449219 8.355469 -153.417969 L 9.335938 -118.308594 C 9.449219 -114.269531 10.304688 -110.753906 12.171875 -107.265625 C 14.039062 -103.78125 16.644531 -101.070312 19.988281 -98.890625 L 43.6875 -83.121094 C 46.269531 -81.171875 47.855469 -78.6875 47.9375 -75.65625 L 49.34375 -25.390625 C 49.417969 -22.613281 48.472656 -20.3125 46.753906 -18.496094 C 44.789062 -16.417969 42.539062 -15.597656 40.011719 -15.527344 L 36.222656 -15.417969 C 33.445312 -15.34375 31.148438 -16.035156 29.324219 -18.007812 C 27.253906 -19.71875 26.433594 -21.972656 26.355469 -24.75 L 25.882812 -41.671875 L 11.738281 -41.277344 L 12.210938 -24.355469 C 12.394531 -17.789062 14.832031 -12.042969 19.503906 -7.621094 C 24.179688 -3.203125 30.050781 -1.089844 36.617188 -1.273438 L 40.40625 -1.378906 C 43.4375 -1.464844 46.453125 -2.054688 49.449219 -3.402344 C 52.445312 -4.75 54.921875 -6.589844 56.886719 -8.664062 C 58.851562 -10.742188 60.550781 -13.316406 61.726562 -16.382812 C 62.914062 -19.199219 63.585938 -22.25 63.488281 -25.785156 L 62.078125 -76.304688 C 61.972656 -80.09375 60.863281 -83.601562 58.996094 -87.085938 C 57.128906 -90.574219 54.523438 -93.28125 51.421875 -95.722656 L 27.726562 -111.492188 C 24.898438 -113.183594 23.566406 -115.675781 23.476562 -118.957031 L 22.496094 -154.066406 C 22.425781 -156.59375 23.117188 -158.886719 25.082031 -160.964844 C 26.800781 -162.78125 29.046875 -163.855469 31.824219 -163.933594 L 35.613281 -164.039062 C 38.140625 -164.109375 40.441406 -163.164062 42.511719 -161.449219 C 44.335938 -159.480469 45.410156 -157.234375 45.480469 -154.707031 L 45.953125 -137.785156 L 60.097656 -138.179688 L 59.625 -155.105469 C 59.441406 -161.671875 56.761719 -167.15625 52.085938 -171.578125 C 47.414062 -175.996094 41.792969 -178.113281 35.226562 -177.929688 Z M 35.226562 -177.929688 "/></g></g></g><g fill="#000000" fill-opacity="1"><g transform="translate(91.944303, 192.646895)"><g><path d="M 12.246094 -21.09375 C 12.324219 -22.074219 14.894531 -36.136719 16.480469 -43.921875 C 17.691406 -49.441406 18.066406 -48.15625 18.21875 -42.335938 C 18.296875 -39.464844 19.808594 -23.4375 19.429688 -21.847656 C 16.632812 -21.773438 14.96875 -21.546875 12.246094 -21.09375 Z M 20.867188 5.214844 C 21.394531 7.484375 24.871094 7.9375 26.460938 6.878906 C 27.519531 6.125 26.234375 5.292969 26.007812 3.855469 C 24.644531 -3.628906 24.34375 -11.492188 23.664062 -19.503906 C 25.324219 -19.503906 26.308594 -18.976562 26.6875 -18.976562 C 27.746094 -18.75 28.273438 -20.867188 27.292969 -21.242188 C 26.460938 -21.621094 24.871094 -21.847656 23.511719 -21.925781 C 23.132812 -24.644531 22.753906 -27.59375 22.605469 -30.390625 C 22.527344 -33.113281 21.394531 -43.242188 20.789062 -45.964844 C 19.582031 -51.40625 14.589844 -52.84375 12.699219 -48.082031 C 8.921875 -38.632812 7.105469 -27.140625 5.519531 -19.957031 C 4.535156 -19.730469 2.871094 -19.277344 2.117188 -18.824219 C 0.453125 -18.066406 1.738281 -16.179688 2.949219 -16.632812 C 4.535156 -17.238281 5.214844 -17.464844 4.988281 -16.707031 C 4.761719 -15.800781 3.25 -5.746094 2.796875 -2.191406 C 2.570312 -0.984375 4.914062 -0.300781 6.199219 -0.152344 C 9.675781 0.378906 9.828125 -0.226562 9.828125 -4.386719 C 9.828125 -6.199219 11.1875 -17.011719 11.71875 -18.445312 C 13.15625 -18.898438 17.539062 -19.351562 19.429688 -19.429688 C 19.730469 -15.421875 20.335938 2.949219 20.867188 5.214844 Z M 20.867188 5.214844 "/></g></g></g><g fill="#000000" fill-opacity="1"><g transform="translate(121.270022, 192.646895)"><g><path d="M 7.636719 -3.554688 C 5.820312 -12.851562 7.484375 -40.976562 8.164062 -45.585938 C 8.617188 -49.441406 9.527344 -50.574219 6.652344 -52.011719 C 4.839844 -52.917969 3.78125 -52.617188 3.554688 -50.726562 C 3.402344 -49.519531 3.25 -48.382812 3.097656 -47.097656 C 1.585938 -37.347656 0.226562 -6.957031 2.570312 -1.4375 C 4.234375 2.496094 9.753906 1.4375 12.550781 -0.453125 C 13.457031 -1.058594 15.269531 -2.34375 16.101562 -3.25 C 17.386719 -4.460938 15.953125 -6.804688 14.816406 -5.898438 C 12.246094 -3.628906 8.316406 -0.0742188 7.636719 -3.554688 Z M 7.636719 -3.554688 "/></g></g></g><g fill="#000000" fill-opacity="1"><g transform="translate(139.334067, 192.646895)"><g><path d="M 26.007812 -53.070312 C 23.058594 -49.441406 19.582031 -37.195312 17.691406 -33.265625 C 17.011719 -31.902344 16.632812 -30.390625 15.421875 -33.035156 C 13.757812 -36.816406 12.699219 -44.375 10.207031 -48.988281 C 9.148438 -50.953125 8.164062 -51.632812 6.804688 -50.878906 C 4.6875 -49.59375 3.402344 -48.460938 3.25 -46.117188 C 2.644531 -38.632812 0.378906 -10.128906 1.8125 -3.097656 C 2.042969 -1.738281 6.957031 0.527344 6.878906 -3.402344 C 7.105469 -13.757812 7.332031 -23.359375 8.242188 -33.71875 C 8.996094 -42.335938 8.769531 -41.882812 11.265625 -33.640625 C 11.945312 -31.148438 12.472656 -29.484375 13.304688 -26.988281 C 14.363281 -23.738281 18.296875 -22.980469 19.730469 -25.703125 C 21.320312 -28.578125 25.097656 -38.40625 27.59375 -44 C 29.332031 -47.929688 28.726562 -43.695312 28.652344 -41.351562 C 27.972656 -29.484375 26.535156 -10.507812 26.988281 -0.605469 C 27.066406 1.585938 30.921875 1.890625 31.296875 0.0742188 C 31.449219 -0.527344 30.921875 -1.285156 30.921875 -2.570312 C 31.070312 -12.398438 33.71875 -44.90625 33.113281 -51.105469 C 32.960938 -52.542969 27.59375 -55.113281 26.007812 -53.070312 Z M 26.007812 -53.070312 "/></g></g></g><g fill="#000000" fill-opacity="1"><g transform="translate(174.026086, 192.646895)"><g><path d="M 14.210938 -46.570312 C 16.78125 -50.199219 18.976562 -46.492188 19.65625 -43.621094 C 20.867188 -38.175781 22.679688 -4.082031 14.363281 -2.722656 C 4.839844 -1.210938 8.011719 -37.949219 14.210938 -46.570312 Z M 2.796875 -9.070312 C 4.234375 -4.15625 8.164062 1.8125 14.363281 0.90625 C 17.765625 0.378906 21.015625 -1.058594 23.4375 -8.164062 C 27.441406 -19.957031 25.550781 -41.203125 22.378906 -47.25 C 19.503906 -52.84375 12.472656 -53.296875 8.164062 -48.988281 C 3.175781 -43.847656 -0.90625 -21.546875 2.796875 -9.070312 Z M 2.796875 -9.070312 "/></g></g></g><g fill="#000000" fill-opacity="1"><g transform="translate(201.235506, 192.646895)"><g><path d="M 27.441406 -49.289062 C 26.382812 -43.46875 26.609375 -20.636719 26.308594 -17.3125 C 25.703125 -8.390625 25.929688 -11.113281 23.738281 -17.691406 C 22.152344 -22.378906 19.582031 -29.863281 17.464844 -36.664062 C 14.894531 -44.753906 13.078125 -51.9375 10.355469 -51.9375 C 7.785156 -51.9375 4.082031 -49.441406 3.628906 -46.570312 C 2.117188 -37.269531 2.34375 -6.804688 1.964844 -3.929688 C 1.890625 -2.949219 1.664062 -1.890625 1.359375 -0.90625 C 0.679688 1.511719 5.746094 2.722656 7.03125 0.226562 C 9.675781 -4.761719 8.769531 -31.070312 9.601562 -45.964844 C 10.582031 -44.753906 19.503906 -16.253906 20.714844 -12.625 C 21.621094 -9.902344 22.980469 -3.554688 24.570312 -2.191406 C 26.308594 -0.679688 28.273438 -0.226562 30.464844 -2.042969 C 31.675781 -3.023438 31.675781 -4.082031 31.828125 -6.652344 C 32.507812 -19.957031 33.113281 -35.835938 33.492188 -50.121094 C 33.566406 -52.769531 27.972656 -52.011719 27.441406 -49.289062 Z M 27.441406 -49.289062 "/></g></g></g><g fill="#000000" fill-opacity="1"><g transform="translate(162.483489, 252.402557)"><g><path d="M 31.296875 -32.128906 C 31.296875 -25.550781 27.820312 -6.199219 19.050781 -4.15625 C 17.691406 -13.984375 17.539062 -26.609375 18.671875 -37.648438 C 19.730469 -47.703125 17.765625 -46.570312 15.953125 -47.023438 C 26.914062 -51.332031 31.296875 -42.035156 31.296875 -32.128906 Z M 10.960938 1.664062 C 29.636719 2.269531 38.632812 -16.78125 37.574219 -33.792969 C 36.136719 -56.398438 13.910156 -53.75 2.644531 -43.242188 C 0.605469 -41.351562 1.210938 -39.160156 2.570312 -39.691406 C 3.25 -39.917969 3.097656 -40.445312 4.308594 -41.277344 C 5.820312 -42.335938 11.113281 -45.890625 13.15625 -46.039062 C 11.71875 -35.003906 10.960938 -5.59375 13.757812 -2.191406 C 13.230469 -1.738281 11.792969 -1.738281 10.960938 -1.738281 C 8.242188 -1.664062 5.746094 -2.191406 7.03125 -0.152344 C 8.164062 1.511719 9.070312 1.585938 10.960938 1.664062 Z M 10.960938 1.664062 "/></g></g></g><g fill="#000000" fill-opacity="1"><g transform="translate(201.559256, 252.402557)"><g><path d="M 3.703125 -46.71875 C 1.058594 -38.632812 0.90625 -16.632812 1.890625 -6.957031 C 2.191406 -3.703125 3.25 -2.722656 5.59375 -1.359375 C 8.617188 0.300781 13.683594 0.90625 14.894531 -3.476562 C 15.496094 -5.671875 12.925781 -6.351562 12.097656 -4.6875 C 11.492188 -3.554688 10.433594 -2.949219 9.601562 -3.703125 C 8.011719 -4.988281 8.089844 -18.144531 8.316406 -20.335938 C 10.8125 -20.5625 12.019531 -20.636719 14.289062 -21.242188 C 17.011719 -21.925781 18.21875 -25.476562 14.515625 -24.796875 C 12.398438 -24.417969 9.148438 -23.890625 8.316406 -23.8125 C 8.390625 -26.535156 8.769531 -35.078125 8.921875 -40.671875 C 8.921875 -43.167969 10.128906 -44.90625 11.414062 -45.207031 C 12.777344 -45.585938 16.179688 -46.644531 17.839844 -47.929688 C 19.582031 -49.214844 19.125 -51.484375 16.554688 -51.03125 C 13.835938 -50.574219 4.460938 -49.140625 3.703125 -46.71875 Z M 3.703125 -46.71875 "/></g></g></g><g fill="#000000" fill-opacity="1"><g transform="translate(221.890754, 252.402557)"><g><path d="M 2.117188 -3.929688 C 3.175781 -2.570312 5.746094 -0.984375 7.484375 -0.378906 C 10.660156 0.679688 13.53125 0.527344 15.648438 -0.90625 C 26.914062 -8.390625 24.796875 -22 12.472656 -31.675781 C 8.011719 -35.230469 7.257812 -40.671875 9.375 -44.148438 C 11.945312 -48.460938 16.933594 -48.988281 20.261719 -44.527344 C 20.941406 -43.546875 25.097656 -44.679688 22.753906 -47.550781 C 18.144531 -53.222656 8.769531 -53.222656 4.613281 -46.796875 C 1.210938 -41.351562 0.527344 -33.1875 7.9375 -27.140625 C 18.824219 -18.296875 19.429688 -6.273438 10.582031 -4.460938 C 8.769531 -4.082031 6.578125 -4.6875 4.082031 -6.878906 C 1.964844 -8.769531 0.378906 -6.199219 2.117188 -3.929688 Z M 2.117188 -3.929688 "/></g></g></g><g fill="#000000" fill-opacity="1"><g transform="translate(246.757155, 252.402557)"><g><path d="M 2.191406 -2.34375 C 2.117188 0 8.542969 1.664062 8.542969 -0.679688 C 8.542969 -11.792969 9.902344 -40.75 9.375 -49.140625 C 9.296875 -50.425781 7.183594 -52.011719 5.519531 -52.464844 C 2.34375 -53.375 3.476562 -50.652344 3.402344 -48.609375 C 2.417969 -32.507812 2.417969 -18.296875 2.191406 -2.34375 Z M 2.191406 -2.34375 "/></g></g></g><g fill="#000000" fill-opacity="1"><g transform="translate(258.547915, 252.402557)"><g><path d="M 17.992188 -20.867188 C 20.335938 -21.847656 20.488281 -21.621094 20.5625 -17.691406 C 20.636719 -14.0625 20.335938 -9.753906 19.050781 -7.636719 C 15.726562 -2.269531 7.785156 0.605469 7.710938 -19.503906 C 7.710938 -24.949219 8.769531 -39.992188 10.886719 -45.207031 C 13.757812 -45.207031 22.832031 -46.417969 25.402344 -48.761719 C 26.234375 -49.519531 25.929688 -51.710938 24.796875 -51.179688 C 21.621094 -49.820312 11.71875 -48.082031 10.734375 -48.535156 C 10.355469 -48.6875 9.828125 -49.59375 7.9375 -49.894531 C 7.03125 -49.972656 6.578125 -49.894531 5.820312 -48.382812 C 4.914062 -48.308594 2.722656 -49.367188 3.25 -47.855469 C 3.554688 -47.097656 4.6875 -46.117188 5.066406 -45.8125 C 1.359375 -33.1875 -0.152344 -19.351562 3.097656 -8.089844 C 5.367188 -0.152344 13.15625 0.378906 19.957031 -2.796875 C 19.957031 -1.132812 19.957031 1.964844 20.789062 2.949219 C 22.300781 4.914062 25.855469 4.386719 25.78125 3.328125 C 25.097656 -2.949219 26.6875 -14.742188 25.855469 -20.488281 C 25.175781 -25.097656 22.226562 -25.78125 17.839844 -25.324219 C 16.859375 -25.25 13.757812 -24.570312 13.15625 -24.039062 C 11.867188 -22.980469 13.53125 -21.09375 14.589844 -20.5625 C 15.726562 -20.035156 16.933594 -20.410156 17.992188 -20.867188 Z M 17.992188 -20.867188 "/></g></g></g><g fill="#000000" fill-opacity="1"><g transform="translate(286.891062, 252.402557)"><g><path d="M 27.441406 -49.289062 C 26.382812 -43.46875 26.609375 -20.636719 26.308594 -17.3125 C 25.703125 -8.390625 25.929688 -11.113281 23.738281 -17.691406 C 22.152344 -22.378906 19.582031 -29.863281 17.464844 -36.664062 C 14.894531 -44.753906 13.078125 -51.9375 10.355469 -51.9375 C 7.785156 -51.9375 4.082031 -49.441406 3.628906 -46.570312 C 2.117188 -37.269531 2.34375 -6.804688 1.964844 -3.929688 C 1.890625 -2.949219 1.664062 -1.890625 1.359375 -0.90625 C 0.679688 1.511719 5.746094 2.722656 7.03125 0.226562 C 9.675781 -4.761719 8.769531 -31.070312 9.601562 -45.964844 C 10.582031 -44.753906 19.503906 -16.253906 20.714844 -12.625 C 21.621094 -9.902344 22.980469 -3.554688 24.570312 -2.191406 C 26.308594 -0.679688 28.273438 -0.226562 30.464844 -2.042969 C 31.675781 -3.023438 31.675781 -4.082031 31.828125 -6.652344 C 32.507812 -19.957031 33.113281 -35.835938 33.492188 -50.121094 C 33.566406 -52.769531 27.972656 -52.011719 27.441406 -49.289062 Z M 27.441406 -49.289062 "/></g></g></g><g clip-path="url(#id1)"><path fill="#000000" d="M 339.144531 124.722656 L 312.683594 136.839844 L 312.683594 131 L 333.136719 122.246094 L 333.136719 122.132812 L 312.683594 113.375 L 312.683594 107.539062 L 339.144531 119.65625 Z M 309.324219 101.050781 L 297.039062 143.328125 L 341.222656 143.328125 C 343.3125 143.328125 345.003906 141.636719 345.003906 139.546875 L 345.003906 104.828125 C 345.003906 102.742188 343.3125 101.050781 341.222656 101.050781 L 309.324219 101.050781 " fill-opacity="1" fill-rule="nonzero"/></g><g clip-path="url(#id2)"><path fill="#ff2768" d="M 280.292969 174.960938 L 280.292969 180.800781 L 253.828125 168.515625 L 253.828125 163.78125 L 280.292969 151.496094 L 280.292969 157.335938 L 260.277344 166.09375 L 260.277344 166.203125 Z M 296.007812 145.007812 L 251.753906 145.007812 C 249.664062 145.007812 247.96875 146.703125 247.96875 148.789062 L 247.96875 183.507812 C 247.96875 185.597656 249.664062 187.289062 251.753906 187.289062 L 283.722656 187.289062 L 296.007812 145.007812 " fill-opacity="1" fill-rule="nonzero"/></g></svg>